<svg xmlns="http://www.w3.org/2000/svg" width="32" height="32" viewBox="0 0 32 32">
    <g fill="none" fill-rule="evenodd">
        <path d="M0 0h32v32H0z"/>
        <path fill="#CFCFCF" d="M24 8h5a2 2 0 0 1 2 2v8a2 2 0 0 1-1.017 1.742c.011.084.017.17.017.258v6a2 2 0 0 1-2 2H4a2 2 0 0 1-2-2v-6c0-.087.006-.174.017-.258A2 2 0 0 1 1 18v-8a2 2 0 0 1 2-2h5V6a2 2 0 0 1 2-2h12a2 2 0 0 1 2 2v2zm-6 10h10a1 1 0 0 0 1-1v-6a1 1 0 0 0-1-1H4a1 1 0 0 0-1 1v6a1 1 0 0 0 1 1h10v-1a1 1 0 0 1 1-1h2a1 1 0 0 1 1 1v1zm-4 2H5a1 1 0 0 0-1 1v4a1 1 0 0 0 1 1h22a1 1 0 0 0 1-1v-4a1 1 0 0 0-1-1h-9v1a2 2 0 1 1-4 0v-1zM11 6a1 1 0 0 0-1 1v1h12V7a1 1 0 0 0-1-1H11z"/>
    </g>
</svg>
