<svg xmlns="http://www.w3.org/2000/svg" width="32" height="32" viewBox="0 0 32 32">
    <g fill="none" fill-rule="evenodd">
        <path d="M0 0h32v32H0z"/>
        <path fill="#CFCFCF" fill-rule="nonzero" d="M28.792 18.56c.661.496.834 1.382.426 2.116l-2.552 4.418a1.635 1.635 0 0 1-2.031.73l-2.674-1.075a10.6 10.6 0 0 1-1.385.803l-.397 2.804A1.61 1.61 0 0 1 18.56 29.8h-5.12c-.803 0-1.464-.566-1.63-1.404l-.402-2.843a10.288 10.288 0 0 1-1.387-.804l-2.729 1.096c-.743.247-1.578-.039-1.966-.737l-2.578-4.464a1.664 1.664 0 0 1 .428-2.072l2.26-1.764A9.314 9.314 0 0 1 5.4 16c0-.26.016-.531.045-.812L3.208 13.44c-.661-.496-.834-1.382-.426-2.116l2.552-4.418a1.635 1.635 0 0 1 2.031-.73l2.674 1.075a10.6 10.6 0 0 1 1.384-.803l.404-2.852A1.622 1.622 0 0 1 13.44 2.2h5.12a1.64 1.64 0 0 1 1.63 1.404l.402 2.843c.48.229.938.496 1.387.804l2.729-1.096c.743-.247 1.578.039 1.966.737l2.578 4.464c.367.694.199 1.57-.428 2.072l-2.259 1.764c.023.264.035.534.035.808 0 .265-.01.53-.031.802l2.223 1.758zm-4.332-.875l.067-.556c.048-.4.073-.77.073-1.129 0-.38-.028-.743-.083-1.09l-.094-.583.465-.363 2.454-1.917-2.249-3.893-3.407 1.37-.452-.345a8.37 8.37 0 0 0-1.932-1.117l-.532-.217-.08-.569-.435-3.076H13.76l-.515 3.645-.532.217a8.614 8.614 0 0 0-1.935 1.12l-.451.34-.525-.21-2.88-1.158-2.25 3.893 2.92 2.28-.094.583c-.064.405-.099.769-.099 1.09 0 .37.029.749.083 1.09l.094.583-.465.363-2.454 1.917 2.249 3.893 3.407-1.37.452.345a8.37 8.37 0 0 0 1.932 1.117l.532.217.08.569.434 3.076h4.495l.515-3.645.532-.217a8.614 8.614 0 0 0 1.935-1.12l.451-.34.525.21 2.88 1.158 2.25-3.895-2.867-2.266zM16 21c-2.752 0-5-2.248-5-5s2.248-5 5-5 5 2.248 5 5-2.248 5-5 5zm0-2c1.648 0 3-1.352 3-3s-1.352-3-3-3-3 1.352-3 3 1.352 3 3 3z"/>
    </g>
</svg>
