<svg xmlns="http://www.w3.org/2000/svg" width="32" height="32" viewBox="0 0 32 32">
    <g fill="none" fill-rule="evenodd">
        <path d="M0 0h32v32H0z"/>
        <path fill="#CFCFCF" d="M3 6h4a2 2 0 0 1 2 2v20a2 2 0 0 1-2 2H3a2 2 0 0 1-2-2V8a2 2 0 0 1 2-2zm10-4h4a2 2 0 0 1 2 2v24a2 2 0 0 1-2 2h-4a2 2 0 0 1-2-2V4a2 2 0 0 1 2-2zM4 8a1 1 0 0 0-1 1v18a1 1 0 0 0 1 1h2a1 1 0 0 0 1-1V9a1 1 0 0 0-1-1H4zm10-4a1 1 0 0 0-1 1v22a1 1 0 0 0 1 1h2a1 1 0 0 0 1-1V5a1 1 0 0 0-1-1h-2zm-1 18h4v2h-4v-2zM3 22h4v2H3v-2zM20.55 8.512l3.898-.9a2 2 0 0 1 2.399 1.499l4.049 17.538a2 2 0 0 1-1.5 2.399l-3.897.9a2 2 0 0 1-2.398-1.5L19.05 10.91a2 2 0 0 1 1.5-2.398zm1.425 1.723a1 1 0 0 0-.75 1.2l3.6 15.59a1 1 0 0 0 1.199.749l1.949-.45a1 1 0 0 0 .75-1.2l-3.6-15.59a1 1 0 0 0-1.2-.749l-1.948.45zM23.7 22.153l3.897-.9.45 1.949-3.897.9-.45-1.95z"/>
    </g>
</svg>
